<?xml version="1.0" encoding="UTF-8"?>
<!DOCTYPE svg PUBLIC "-//W3C//DTD SVG 1.1//EN" "http://www.w3.org/Graphics/SVG/1.1/DTD/svg11.dtd">
<!-- Creator: CorelDRAW X8 -->
<svg xmlns="http://www.w3.org/2000/svg" xml:space="preserve" width="210mm" height="297mm" version="1.1" style="shape-rendering:geometricPrecision; text-rendering:geometricPrecision; image-rendering:optimizeQuality; fill-rule:evenodd; clip-rule:evenodd"
viewBox="0 0 21000 29700"
 xmlns:xlink="http://www.w3.org/1999/xlink">
 <defs>
  <style type="text/css">
   <![CDATA[
    .fil3 {fill:none}
    .fil2 {fill:#232536}
    .fil0 {fill:#FBF6EA}
    .fil1 {fill:#FFD050}
   ]]>
  </style>
    <clipPath id="id0">
     <path d="M6765 13308l608 0 0 -609 -608 0 0 609z"/>
    </clipPath>
 </defs>
 <g id="Слой_x0020_1">
  <metadata id="CorelCorpID_0Corel-Layer"/>
  <g id="_2719774003168">
   <path id="Icon_x0020_background.svg" class="fil0" d="M7466 13639l-794 0c-131,0 -238,-107 -238,-238l0 -794c0,-132 107,-238 238,-238l794 0c132,0 238,106 238,238l0 794c0,131 -106,238 -238,238z"/>
   <g>
   </g>
   <g style="clip-path:url(#id0)">
    <g id="_2719774004160">
     <path class="fil1" d="M6920 12864l-53 4c-15,1 -28,9 -36,21l-61 92c-6,9 -7,21 -2,31 4,10 13,17 24,19l49 8c11,-60 38,-120 79,-175z"/>
     <path class="fil1" d="M7034 13232l8 48c1,11 9,21 19,25 4,2 9,3 13,3 6,0 13,-2 18,-5l92 -61c12,-8 20,-21 21,-36l4 -53c-55,41 -115,68 -175,79z"/>
     <path class="fil1" d="M7016 13199c2,0 3,0 5,-1 25,-4 49,-11 73,-20l-199 -199c-9,23 -16,48 -20,73 -2,10 1,20 8,27l111 110c6,6 14,10 22,10z"/>
     <path class="fil2" d="M7325 12969c48,-94 50,-193 48,-239 -1,-16 -14,-29 -30,-30 -7,0 -16,-1 -26,-1 -53,0 -135,8 -213,49 -63,32 -145,103 -193,197 1,0 1,1 2,1l214 214c0,1 1,1 1,2 93,-48 165,-130 197,-193zm-206 -141c34,-35 91,-35 126,0 17,17 26,39 26,63 0,24 -9,46 -26,63 -18,18 -40,26 -63,26 -23,0 -46,-8 -63,-26 -17,-17 -26,-39 -26,-63 0,-24 9,-46 26,-63z"/>
     <path class="fil2" d="M7144 12929c21,21 55,21 76,0 10,-10 15,-24 15,-38 0,-14 -5,-28 -15,-38 -11,-10 -25,-15 -38,-15 -14,0 -28,5 -38,15 -10,10 -16,24 -16,38 0,14 6,28 16,38z"/>
     <path class="fil1" d="M6783 13201c5,0 9,-2 13,-5l58 -58c7,-7 7,-19 0,-26 -7,-7 -18,-7 -25,0l-59 59c-7,6 -7,18 0,25 4,3 8,5 13,5z"/>
     <path class="fil1" d="M6907 13166c-7,-7 -18,-7 -25,0l-112 112c-7,7 -7,18 0,25 4,3 8,5 13,5 4,0 9,-2 12,-5l112 -112c7,-7 7,-18 0,-25z"/>
     <path class="fil1" d="M6935 13219l-58 58c-7,7 -7,18 0,25 4,4 8,6 13,6 4,0 9,-2 12,-6l59 -58c6,-7 6,-18 0,-25 -7,-7 -19,-7 -26,0z"/>
    </g>
   </g>
   <polygon class="fil3" points="6765,13308 7373,13308 7373,12699 6765,12699 "/>
  </g>
 </g>
</svg>
